<svg width="240" height="240" viewBox="0 0 240 240" fill="none" xmlns="http://www.w3.org/2000/svg">
<path d="M24.2012 127.132C22.8394 124.975 22.1584 123.897 21.7772 122.234C21.4909 120.985 21.4909 119.015 21.7772 117.766C22.1584 116.103 22.8394 115.025 24.2012 112.868C35.4553 95.0484 68.954 50 120.004 50C171.054 50 204.553 95.0484 215.807 112.868C217.169 115.025 217.85 116.103 218.231 117.766C218.517 119.015 218.517 120.985 218.231 122.234C217.85 123.897 217.169 124.975 215.807 127.132C204.553 144.952 171.054 190 120.004 190C68.954 190 35.4553 144.952 24.2012 127.132Z" stroke="black" stroke-width="20" stroke-linecap="round" stroke-linejoin="round"/>
<path d="M120.004 150C136.573 150 150.004 136.569 150.004 120C150.004 103.431 136.573 90 120.004 90C103.435 90 90.004 103.431 90.004 120C90.004 136.569 103.435 150 120.004 150Z" stroke="black" stroke-width="20" stroke-linecap="round" stroke-linejoin="round"/>
</svg>
