<svg width="240" height="240" viewBox="0 0 240 240" fill="none" xmlns="http://www.w3.org/2000/svg">
<path d="M80 140C80 140 95 160 120 160C145 160 160 140 160 140M170 92.4C166.05 97.25 160.65 100 155 100C149.35 100 144.1 97.25 140 92.4M100 92.4C96.05 97.25 90.65 100 85 100C79.35 100 74.1 97.25 70 92.4M220 120C220 175.228 175.228 220 120 220C64.7715 220 20 175.228 20 120C20 64.7715 64.7715 20 120 20C175.228 20 220 64.7715 220 120Z" stroke="black" stroke-width="20" stroke-linecap="round" stroke-linejoin="round"/>
</svg>
