<svg width="142" height="32" viewBox="0 0 142 32" fill="none" xmlns="http://www.w3.org/2000/svg">
<circle cx="16" cy="16" r="16" fill="black"/>
<circle cx="16" cy="16" r="12.9032" fill="white"/>
<path d="M10.8387 8.25879C10.1543 8.25879 9.49787 8.53068 9.01391 9.01464C8.52995 9.49861 8.25806 10.155 8.25806 10.8394V11.0988L16 15.2678L23.7419 11.1001V10.8394C23.7419 10.155 23.47 9.49861 22.9861 9.01464C22.5021 8.53068 21.8457 8.25879 21.1613 8.25879H10.8387Z" fill="black"/>
<path d="M23.7419 15.1445L16.3058 19.1484C16.2118 19.199 16.1067 19.2255 16 19.2255C15.8932 19.2255 15.7882 19.199 15.6942 19.1484L8.25806 15.1445V21.1613C8.25806 21.8457 8.52995 22.5021 9.01391 22.9861C9.49787 23.4701 10.1543 23.742 10.8387 23.742H21.1613C21.8457 23.742 22.5021 23.4701 22.9861 22.9861C23.47 22.5021 23.7419 21.8457 23.7419 21.1613V15.1445Z" fill="black"/>
<path d="M42.0742 23V8.44922H47.377L49.2422 14.1328C49.3464 14.4779 49.4668 14.9238 49.6035 15.4707C49.7402 16.0111 49.877 16.5905 50.0137 17.209C50.1569 17.8275 50.2871 18.4232 50.4043 18.9961C50.528 19.569 50.6257 20.0573 50.6973 20.4609H49.9648C50.043 20.0573 50.1406 19.5723 50.2578 19.0059C50.375 18.4329 50.502 17.8372 50.6387 17.2188C50.7819 16.6003 50.9186 16.0176 51.0488 15.4707C51.1855 14.9238 51.306 14.4779 51.4102 14.1328L53.2461 8.44922H58.5684V23H55.1113V16.7207C55.1113 16.3952 55.1178 15.9818 55.1309 15.4805C55.1439 14.9792 55.1569 14.4355 55.1699 13.8496C55.1895 13.2572 55.2057 12.6615 55.2188 12.0625C55.2318 11.457 55.2415 10.8971 55.248 10.3828H55.5215C55.3913 10.9427 55.248 11.5286 55.0918 12.1406C54.9421 12.7461 54.7891 13.3385 54.6328 13.918C54.4766 14.4974 54.3301 15.028 54.1934 15.5098C54.0566 15.9915 53.9362 16.3952 53.832 16.7207L51.7617 23H48.8906L46.7812 16.7207C46.6836 16.4017 46.5632 16.0013 46.4199 15.5195C46.2767 15.0312 46.127 14.5007 45.9707 13.9277C45.8145 13.3483 45.6549 12.7559 45.4922 12.1504C45.3359 11.5384 45.1895 10.9492 45.0527 10.3828H45.3848C45.3848 10.8906 45.3913 11.444 45.4043 12.043C45.4238 12.6419 45.4401 13.2376 45.4531 13.8301C45.4727 14.416 45.4889 14.9629 45.502 15.4707C45.515 15.9785 45.5215 16.3952 45.5215 16.7207V23H42.0742Z" fill="black"/>
<path d="M63.3832 23.1855C62.6866 23.1855 62.0681 23.0716 61.5277 22.8438C60.9939 22.6094 60.574 22.2578 60.268 21.7891C59.962 21.3203 59.809 20.7311 59.809 20.0215C59.809 19.4225 59.9132 18.9212 60.1215 18.5176C60.3363 18.1074 60.6293 17.7754 61.0004 17.5215C61.3715 17.2611 61.8012 17.0658 62.2895 16.9355C62.7777 16.7988 63.2986 16.7077 63.852 16.6621C64.4704 16.61 64.9652 16.5547 65.3363 16.4961C65.7139 16.431 65.9874 16.3398 66.1566 16.2227C66.3259 16.099 66.4105 15.9297 66.4105 15.7148V15.666C66.4105 15.4316 66.352 15.2298 66.2348 15.0605C66.1176 14.8913 65.9483 14.7611 65.727 14.6699C65.5121 14.5788 65.2517 14.5332 64.9457 14.5332C64.6332 14.5332 64.3565 14.582 64.1156 14.6797C63.8813 14.7708 63.6892 14.901 63.5395 15.0703C63.3897 15.2396 63.2921 15.4382 63.2465 15.666L60.141 15.4023C60.2582 14.7383 60.5186 14.1621 60.9223 13.6738C61.3324 13.179 61.8793 12.7982 62.5629 12.5312C63.253 12.2578 64.0668 12.1211 65.0043 12.1211C65.7074 12.1211 66.352 12.2025 66.9379 12.3652C67.5238 12.5215 68.0284 12.7559 68.4516 13.0684C68.8813 13.3743 69.2133 13.752 69.4477 14.2012C69.682 14.6504 69.7992 15.1647 69.7992 15.7441V23H66.5668V21.4961H66.4887C66.2934 21.8672 66.046 22.1797 65.7465 22.4336C65.4535 22.681 65.1117 22.8698 64.7211 23C64.3305 23.1237 63.8845 23.1855 63.3832 23.1855ZM64.4184 20.9492C64.796 20.9492 65.1378 20.8743 65.4438 20.7246C65.7497 20.5749 65.9906 20.3665 66.1664 20.0996C66.3487 19.8327 66.4398 19.5234 66.4398 19.1719V18.166C66.3487 18.2116 66.2315 18.2572 66.0883 18.3027C65.9516 18.3418 65.7986 18.3809 65.6293 18.4199C65.46 18.4525 65.2875 18.485 65.1117 18.5176C64.9359 18.5436 64.7602 18.5729 64.5844 18.6055C64.2589 18.651 63.9789 18.7292 63.7445 18.8398C63.5167 18.944 63.3376 19.0807 63.2074 19.25C63.0837 19.4193 63.0219 19.6243 63.0219 19.8652C63.0219 20.0996 63.0805 20.2982 63.1977 20.4609C63.3214 20.6172 63.4874 20.7376 63.6957 20.8223C63.904 20.9069 64.1449 20.9492 64.4184 20.9492Z" fill="black"/>
<path d="M71.5184 23V12.2871H74.907V23H71.5184ZM73.2078 11.0957C72.7 11.0957 72.2736 10.9362 71.9285 10.6172C71.5835 10.2982 71.4109 9.9043 71.4109 9.43555C71.4109 8.9668 71.5835 8.57292 71.9285 8.25391C72.2736 7.9349 72.6967 7.77539 73.198 7.77539C73.7059 7.77539 74.1323 7.9349 74.4773 8.25391C74.8224 8.57292 74.9949 8.9668 74.9949 9.43555C74.9949 9.9043 74.8224 10.2982 74.4773 10.6172C74.1323 10.9362 73.7091 11.0957 73.2078 11.0957Z" fill="black"/>
<path d="M80.0344 8.44922V23H76.6457V8.44922H80.0344Z" fill="black"/>
<path d="M88.4137 23.2051C87.0204 23.2051 85.7965 22.9023 84.7418 22.2969C83.6936 21.6849 82.8766 20.8223 82.2906 19.709C81.7047 18.5892 81.4117 17.2676 81.4117 15.7441C81.4117 14.1556 81.721 12.8047 82.3395 11.6914C82.9579 10.5716 83.7913 9.71875 84.8395 9.13281C85.8876 8.54036 87.0628 8.24414 88.3648 8.24414C89.2112 8.24414 89.999 8.36458 90.7281 8.60547C91.4638 8.84635 92.1148 9.19141 92.6813 9.64062C93.2542 10.0898 93.7164 10.6204 94.068 11.2324C94.426 11.8444 94.6474 12.5215 94.732 13.2637H91.2164C91.1448 12.9512 91.0276 12.6745 90.8648 12.4336C90.7086 12.1862 90.51 11.9779 90.2691 11.8086C90.0348 11.6328 89.7646 11.5026 89.4586 11.418C89.1591 11.3268 88.8206 11.2812 88.443 11.2812C87.7268 11.2812 87.1051 11.457 86.5777 11.8086C86.0504 12.1536 85.6435 12.6582 85.357 13.3223C85.0771 13.9798 84.9371 14.7773 84.9371 15.7148C84.9371 16.6523 85.0771 17.4531 85.357 18.1172C85.637 18.7812 86.0406 19.2891 86.568 19.6406C87.0953 19.9922 87.7301 20.168 88.4723 20.168C89.1103 20.168 89.6572 20.0605 90.1129 19.8457C90.5686 19.6309 90.9137 19.3249 91.148 18.9277C91.3889 18.5306 91.5094 18.0684 91.5094 17.541L92.2027 17.6191H88.5992V15.0703H94.8785V17.0039C94.8785 18.2799 94.6018 19.3835 94.0484 20.3145C93.4951 21.2389 92.7333 21.9518 91.7633 22.4531C90.7932 22.9544 89.6767 23.2051 88.4137 23.2051Z" fill="black"/>
<path d="M100.035 23.166C99.2799 23.166 98.6224 23 98.0625 22.668C97.5091 22.3294 97.0827 21.8542 96.7832 21.2422C96.4837 20.6302 96.334 19.9076 96.334 19.0742V12.2871H99.7227V18.4004C99.7227 19.0124 99.8757 19.4909 100.182 19.8359C100.494 20.1745 100.924 20.3438 101.471 20.3438C101.835 20.3438 102.154 20.2656 102.428 20.1094C102.701 19.9531 102.913 19.722 103.062 19.416C103.219 19.11 103.297 18.7389 103.297 18.3027V12.2871H106.686V23H103.443L103.404 20.2461H103.668C103.382 21.125 102.945 21.8314 102.359 22.3652C101.78 22.8991 101.005 23.166 100.035 23.166Z" fill="black"/>
<path d="M111.5 23.1855C110.804 23.1855 110.185 23.0716 109.645 22.8438C109.111 22.6094 108.691 22.2578 108.385 21.7891C108.079 21.3203 107.926 20.7311 107.926 20.0215C107.926 19.4225 108.03 18.9212 108.239 18.5176C108.454 18.1074 108.746 17.7754 109.118 17.5215C109.489 17.2611 109.918 17.0658 110.407 16.9355C110.895 16.7988 111.416 16.7077 111.969 16.6621C112.588 16.61 113.082 16.5547 113.454 16.4961C113.831 16.431 114.105 16.3398 114.274 16.2227C114.443 16.099 114.528 15.9297 114.528 15.7148V15.666C114.528 15.4316 114.469 15.2298 114.352 15.0605C114.235 14.8913 114.065 14.7611 113.844 14.6699C113.629 14.5788 113.369 14.5332 113.063 14.5332C112.75 14.5332 112.474 14.582 112.233 14.6797C111.998 14.7708 111.806 14.901 111.657 15.0703C111.507 15.2396 111.409 15.4382 111.364 15.666L108.258 15.4023C108.375 14.7383 108.636 14.1621 109.039 13.6738C109.45 13.179 109.996 12.7982 110.68 12.5312C111.37 12.2578 112.184 12.1211 113.121 12.1211C113.825 12.1211 114.469 12.2025 115.055 12.3652C115.641 12.5215 116.146 12.7559 116.569 13.0684C116.998 13.3743 117.33 13.752 117.565 14.2012C117.799 14.6504 117.916 15.1647 117.916 15.7441V23H114.684V21.4961H114.606C114.411 21.8672 114.163 22.1797 113.864 22.4336C113.571 22.681 113.229 22.8698 112.838 23C112.448 23.1237 112.002 23.1855 111.5 23.1855ZM112.536 20.9492C112.913 20.9492 113.255 20.8743 113.561 20.7246C113.867 20.5749 114.108 20.3665 114.284 20.0996C114.466 19.8327 114.557 19.5234 114.557 19.1719V18.166C114.466 18.2116 114.349 18.2572 114.205 18.3027C114.069 18.3418 113.916 18.3809 113.746 18.4199C113.577 18.4525 113.405 18.485 113.229 18.5176C113.053 18.5436 112.877 18.5729 112.702 18.6055C112.376 18.651 112.096 18.7292 111.862 18.8398C111.634 18.944 111.455 19.0807 111.325 19.25C111.201 19.4193 111.139 19.6243 111.139 19.8652C111.139 20.0996 111.198 20.2982 111.315 20.4609C111.439 20.6172 111.605 20.7376 111.813 20.8223C112.021 20.9069 112.262 20.9492 112.536 20.9492Z" fill="black"/>
<path d="M119.636 23V12.2871H122.927V14.2207H123.005C123.2 13.5176 123.516 13.0033 123.952 12.6777C124.388 12.3457 124.922 12.1797 125.554 12.1797C125.716 12.1797 125.879 12.1862 126.042 12.1992C126.205 12.2122 126.358 12.235 126.501 12.2676V15.168C126.351 15.1289 126.143 15.0996 125.876 15.0801C125.615 15.054 125.374 15.041 125.153 15.041C124.743 15.041 124.375 15.1322 124.05 15.3145C123.731 15.4967 123.48 15.7539 123.298 16.0859C123.115 16.418 123.024 16.8118 123.024 17.2676V23H119.636Z" fill="black"/>
<path d="M131.042 23.1855C130.209 23.1855 129.457 22.9707 128.786 22.541C128.122 22.1113 127.598 21.4863 127.214 20.666C126.83 19.8392 126.638 18.8333 126.638 17.6484C126.638 16.444 126.836 15.4316 127.234 14.6113C127.631 13.7845 128.161 13.1628 128.825 12.7461C129.489 12.3294 130.219 12.1211 131.013 12.1211C131.553 12.1211 132.019 12.2057 132.409 12.375C132.807 12.5443 133.142 12.7721 133.415 13.0586C133.689 13.3385 133.904 13.651 134.06 13.9961H134.118V8.44922H137.517V23H134.157V21.291H134.079C133.923 21.6426 133.705 21.9616 133.425 22.248C133.152 22.5345 132.816 22.7624 132.419 22.9316C132.029 23.1009 131.57 23.1855 131.042 23.1855ZM132.136 20.5098C132.566 20.5098 132.933 20.3926 133.239 20.1582C133.552 19.9173 133.793 19.582 133.962 19.1523C134.131 18.7227 134.216 18.2181 134.216 17.6387C134.216 17.0592 134.131 16.5579 133.962 16.1348C133.799 15.7051 133.562 15.373 133.249 15.1387C132.937 14.9043 132.566 14.7871 132.136 14.7871C131.706 14.7871 131.338 14.9043 131.032 15.1387C130.733 15.373 130.505 15.7051 130.349 16.1348C130.193 16.5579 130.114 17.0592 130.114 17.6387C130.114 18.2246 130.193 18.7324 130.349 19.1621C130.505 19.5918 130.733 19.9238 131.032 20.1582C131.338 20.3926 131.706 20.5098 132.136 20.5098Z" fill="black"/>
</svg>
