<svg width="240" height="240" viewBox="0 0 240 240" fill="none" xmlns="http://www.w3.org/2000/svg">
<path d="M90 115L110 135L155 89.9997M200 120C200 169.084 146.46 204.784 126.98 216.148C124.766 217.44 123.659 218.086 122.097 218.421C120.884 218.681 119.116 218.681 117.903 218.421C116.341 218.086 115.234 217.44 113.02 216.148C93.5396 204.784 40 169.084 40 120V72.1757C40 64.1806 40 60.183 41.3076 56.7467C42.4627 53.7111 44.3398 51.0025 46.7766 48.855C49.535 46.4241 53.278 45.0204 60.764 42.2132L114.382 22.1064C116.461 21.3268 117.5 20.937 118.57 20.7825C119.518 20.6454 120.482 20.6454 121.43 20.7825C122.5 20.937 123.539 21.3268 125.618 22.1064L179.236 42.2132C186.722 45.0204 190.465 46.4241 193.223 48.855C195.66 51.0025 197.537 53.7111 198.692 56.7467C200 60.183 200 64.1806 200 72.1757V120Z" stroke="black" stroke-width="20" stroke-linecap="round" stroke-linejoin="round"/>
</svg>
